<svg xmlns="http://www.w3.org/2000/svg" width="1116" height="118" viewBox="0 0 1116 118">
    <path fill="#1C1794" fill-rule="evenodd" d="M18.888 59.051v19.684c0 5.511.157 12.44.315 17.636.157 8.976 3.148 12.913 7.712 16.85h-1.889c-2.99 0-7.555-.788-12.277-.788-4.722 0-7.87.788-10.86.788H0c3.778-3.937 5.194-8.346 5.824-16.85.315-5.196.472-12.125.472-17.636V36.848c0-5.512-.157-12.44-.472-17.637C5.194 10.708 3.778 6.3 0 2.362h1.889c2.99 0 6.138.472 10.86.472h28.962c6.453 0 11.332 0 17.47-.472.788 3.937 1.26 8.503 1.26 13.7 0 2.992-.157 6.141-.787 10.55-3.778-8.346-8.972-15.274-17.943-16.849-3.935-.63-7.398-.787-13.537-.787-7.397 0-8.342 1.26-8.814 7.558-.472 4.882-.472 10.55-.472 16.22V52.91c5.351 0 13.693-.158 18.73-.788 7.083-.787 11.648-2.834 15.425-8.188v1.89c0 3.15-.472 4.881-.472 10.078 0 5.196.472 7.086.472 10.235v1.89c-3.777-5.354-8.342-7.244-15.425-8.189-5.037-.63-13.536-.787-18.73-.787zM98.53 8.661c-7.397 0-8.342 1.575-8.814 7.873-.472 4.882-.472 10.55-.472 16.22v22.045c1.259.158 2.36.158 7.24.158 17.471 0 25.97-8.818 25.97-22.833 0-14.487-8.184-23.463-23.924-23.463zM83.106 3.149c6.139 0 9.287-.63 18.416-.63 22.35 0 34.313 13.228 34.313 28.03 0 12.755-6.454 22.36-17.786 27.242 8.342 15.432 15.267 27.558 26.6 41.887 4.25 5.197 8.185 9.92 14.48 13.7-2.36 2.047-5.666 2.205-8.027 2.205-6.768 0-13.064-3.622-19.832-13.07-9.286-12.598-15.74-23.936-24.082-41.887-2.36.472-5.351.63-8.657.63-2.518 0-7.397-.158-9.286-.63v18.109c0 5.511.157 12.44.315 17.636.157 8.976 2.203 12.756 6.138 16.85H93.81c-2.99 0-5.98-.788-10.703-.788-4.722 0-7.87.788-10.86.788h-1.889c3.778-3.937 5.194-8.346 5.824-16.85.315-5.196.472-12.125.472-17.636V36.848c0-5.512-.157-12.44-.472-17.637-.63-8.503-2.046-12.912-5.824-16.849h1.889c2.99 0 6.138.787 10.86.787zm88.3 75.586L203.36 0l30.535 78.735c1.889 5.039 4.722 12.44 7.083 17.636 2.99 6.93 4.88 11.968 8.814 16.85h-2.36c-4.093 0-6.926-.473-10.39-.473-3.62 0-5.98.473-10.387.473h-1.574c2.675-3.465 3.148-5.984 3.148-8.504 0-5.196-2.519-11.495-7.713-25.982l-1.26-3.15h-38.404l-1.102 3.15c-5.51 14.487-6.768 20.628-6.768 24.25 0 2.992.63 5.984 4.25 10.236h-1.732c-3.777 0-6.453-.473-9.129-.473-3.463 0-6.296.473-9.13.473h-1.73c3.62-5.512 5.823-9.92 8.814-16.85 2.36-5.196 5.194-12.597 7.083-17.636zm29.277-51.02l-17 41.1h33.054l-16.054-41.1zm61.385 51.177V36.848c0-5.512 0-11.495-.472-16.692-.787-8.346-2.518-13.227-7.083-17.794h1.889c4.564 0 7.555.472 14.953.472l71.458 83.46V36.847c0-5.512-.157-12.44-.472-17.637-.63-8.503-2.046-12.912-5.823-16.849h1.259c2.99 0 6.138.787 9.286.787 3.148 0 6.296-.787 9.287-.787h1.259c-3.935 4.094-5.981 7.874-6.139 16.85-.157 5.196-.314 12.124-.314 17.636v53.225c0 7.558.157 18.739.63 26.927L270.41 21.888v57.004c0 5.512.158 12.44.315 17.637.157 8.976 2.204 12.755 6.139 16.85h-1.26c-2.99 0-6.138-.788-9.286-.788-3.148 0-6.296.787-9.287.787h-1.259c3.778-3.937 5.194-8.346 5.824-16.85.315-5.196.472-12.124.472-17.636zm157.87-42.044l-14.795 14.96c13.222 18.423 25.341 33.54 38.405 48.028 5.51 6.141 10.074 11.18 14.638 13.7-2.518 1.732-5.666 2.047-8.027 2.047-6.768 0-13.221-4.252-20.62-13.07-11.017-12.755-21.72-26.613-36.83-48.028l17.628-17.795c15.74-15.904 21.092-22.045 21.092-26.454 0-2.52-.63-4.567-3.62-7.874h2.203c4.88 0 7.713.787 11.175.787 3.306 0 5.667-.787 9.76-.787h2.36c-6.138 6.299-9.601 10.236-15.897 16.534-5.352 5.354-13.694 14.015-17.471 17.952zm-31.007 0v41.887c0 5.511.158 12.44.315 17.636.157 8.976 2.204 12.756 6.138 16.85h-1.888c-2.99 0-5.981-.788-10.703-.788-4.722 0-7.87.788-10.86.788h-1.89c3.778-3.937 5.195-8.346 5.824-16.85.315-5.196.472-12.125.472-17.636V36.848c0-5.512-.157-12.44-.472-17.637-.63-8.503-2.046-12.912-5.824-16.849h1.89c2.99 0 6.138.787 10.86.787 4.722 0 7.712-.787 10.703-.787h1.888c-3.934 4.094-5.98 7.874-6.138 16.85-.157 5.196-.315 12.124-.315 17.636zM536.1 106.607c29.118 0 45.96-17.48 45.96-48.186 0-30.864-20.305-49.288-47.22-49.288-15.897 0-19.202 1.103-19.674 7.401-.473 4.882-.473 10.55-.473 16.22V80.31c0 5.511.158 14.014.473 17.164.787 8.03 4.879 9.133 20.934 9.133zM502.1 78.735V36.848c0-5.512-.158-12.44-.473-17.637-.63-8.503-2.046-12.912-5.823-16.849h1.888c2.99 0 6.139.787 10.86.787 9.602 0 16.842-1.102 27.546-1.102 31.951 0 60.44 18.896 60.44 56.217 0 33.698-24.081 55.744-59.339 55.744-13.221 0-21.878-1.575-28.646-1.575-4.722 0-7.87.788-10.86.788h-1.89c3.778-3.937 5.195-8.346 5.824-16.85.315-5.196.473-12.125.473-17.636zm113.484 0L647.537 0l30.535 78.735c1.889 5.039 4.722 12.44 7.083 17.636 2.99 6.93 4.88 11.968 8.814 16.85h-2.36c-4.093 0-6.926-.473-10.39-.473-3.62 0-5.98.473-10.388.473h-1.574c2.676-3.465 3.148-5.984 3.148-8.504 0-5.196-2.518-11.495-7.712-25.982l-1.26-3.15H625.03l-1.102 3.15c-5.51 14.487-6.768 20.628-6.768 24.25 0 2.992.63 5.984 4.25 10.236h-1.732c-3.778 0-6.453-.473-9.13-.473-3.462 0-6.295.473-9.128.473h-1.732c3.62-5.512 5.824-9.92 8.815-16.85 2.36-5.196 5.194-12.597 7.083-17.636zm29.276-51.02l-17 41.1h33.054l-16.054-41.1zM727.81 8.66c-7.398 0-8.342 1.575-8.815 7.873-.472 4.882-.472 10.55-.472 16.22v22.045c1.26.158 2.361.158 7.24.158 17.472 0 25.971-8.818 25.971-22.833 0-14.487-8.185-23.463-23.924-23.463zm-15.425-5.512c6.138 0 9.286-.63 18.415-.63 22.35 0 34.313 13.228 34.313 28.03 0 12.755-6.453 22.36-17.786 27.242 8.342 15.432 15.268 27.558 26.6 41.887 4.25 5.197 8.185 9.92 14.481 13.7-2.361 2.047-5.666 2.205-8.027 2.205-6.768 0-13.064-3.622-19.832-13.07-9.287-12.598-15.74-23.936-24.082-41.887-2.361.472-5.352.63-8.657.63-2.519 0-7.398-.158-9.287-.63v18.109c0 5.511.158 12.44.315 17.636.157 8.976 2.204 12.756 6.138 16.85h-1.888c-2.99 0-5.981-.788-10.703-.788-4.722 0-7.87.788-10.86.788h-1.89c3.778-3.937 5.195-8.346 5.824-16.85.315-5.196.472-12.125.472-17.636V36.848c0-5.512-.157-12.44-.472-17.637-.63-8.503-2.046-12.912-5.824-16.849h1.89c2.99 0 6.138.787 10.86.787zm98.531 33.699V80.31c0 5.511.315 14.014.472 17.164.315 7.716 2.99 9.133 10.074 9.133 6.768 0 12.434-.157 16.684-.787 9.129-1.26 14.166-10.236 18.258-21.574.787 3.15.944 7.401.944 9.448 0 6.457-1.259 13.07-2.833 19.842-11.49-.63-29.59-.788-49.738-.788-4.722 0-7.87.473-10.86.473h-1.889c3.778-3.937 5.194-8.346 5.824-16.85.315-5.196.472-12.125.472-17.636V36.848c0-5.512-.157-12.44-.472-17.637-.63-8.503-2.046-12.912-5.824-16.849h1.889c2.99 0 6.138.787 10.86.787 4.722 0 7.713-.787 10.704-.787h1.888c-3.935 4.094-5.98 7.874-6.138 16.85-.158 5.196-.315 12.124-.315 17.636zm73.662 0v41.887c0 5.511.158 12.44.315 17.636.158 8.976 2.204 12.756 6.139 16.85h-1.89c-2.99 0-5.98-.788-10.702-.788-4.722 0-7.87.788-10.86.788h-1.89c3.778-3.937 5.195-8.346 5.824-16.85.315-5.196.472-12.125.472-17.636V36.848c0-5.512-.157-12.44-.472-17.637-.63-8.503-2.046-12.912-5.823-16.849h1.888c2.99 0 6.139.787 10.86.787 4.723 0 7.713-.787 10.704-.787h1.889c-3.935 4.094-5.981 7.874-6.139 16.85-.157 5.196-.315 12.124-.315 17.636zm25.971 42.044V36.848c0-5.512 0-11.495-.472-16.692-.787-8.346-2.519-13.227-7.083-17.794h1.889c4.564 0 7.555.472 14.953.472l71.458 83.46V36.847c0-5.512-.157-12.44-.472-17.637-.63-8.503-2.046-12.912-5.824-16.849h1.26c2.99 0 6.138.787 9.286.787 3.148 0 6.296-.787 9.287-.787h1.259c-3.935 4.094-5.981 7.874-6.139 16.85-.157 5.196-.315 12.124-.315 17.636v53.225c0 7.558.158 18.739.63 26.927l-81.375-95.112v57.004c0 5.512.158 12.44.315 17.637.157 8.976 2.204 12.755 6.139 16.85h-1.26c-2.99 0-6.138-.788-9.286-.788-3.148 0-6.296.787-9.287.787h-1.259c3.778-3.937 5.194-8.346 5.824-16.85.315-5.196.472-12.124.472-17.636zm189.193 15.432c0-5.511 0-9.133-.315-14.33-.63-8.503-2.99-12.754-7.555-16.849h1.889c2.99 0 6.925.788 11.647.788s7.713-.788 10.703-.788H1118c-3.935 4.095-5.981 7.559-6.139 16.535-.157 5.196-.314 9.605-.314 15.117 0 5.511.157 7.716.787 12.597-8.972 4.882-20.777 8.189-34.628 8.189-31.007 0-61.857-18.11-61.857-57.95 0-34.642 27.702-57.318 60.913-57.318 15.425 0 24.396 2.52 34.785 6.299.472 3.779.63 5.669.63 9.29 0 3.622-.316 10.708-1.575 17.48-8.184-18.424-14.48-25.825-33.683-25.825-27.702 0-46.275 20.313-46.275 49.917 0 31.967 23.61 50.863 49.423 50.863 13.851 0 19.675-4.094 19.675-14.015z"/>
</svg>
