<svg width="110" height="28" viewBox="0 0 110 28" fill="none" xmlns="http://www.w3.org/2000/svg">
<path d="M2.47511 22.2056C1.11086 22.2056 0 23.318 0 24.684C0 26.05 1.11086 27.1624 2.47511 27.1624C3.83937 27.1624 4.95023 26.05 4.95023 24.684C4.95023 23.318 3.83937 22.2056 2.47511 22.2056ZM0.511312 18.9208H11.5407C16.7557 18.9208 21 14.8068 21 9.75043C21 4.6963 16.7557 0.586853 11.5407 0.586853H0.511312V3.97817H11.5407C14.8303 3.97817 17.5068 6.57206 17.5068 9.75949C17.5068 12.9424 14.8303 15.5295 11.5407 15.5295H0.511312V18.9208ZM2.47511 7.27887C1.11086 7.27887 0 8.39118 0 9.75722C0 11.1233 1.11086 12.2356 2.47511 12.2356C3.83937 12.2356 4.95023 11.1233 4.95023 9.75722C4.95023 8.39118 3.83937 7.27887 2.47511 7.27887Z" fill="url(#paint0_linear_37284_96986)"/>
<path d="M77.75 20.0298H72.2686C70.8112 20.0298 69.6233 18.8596 69.6233 17.4221V5.60114H66.75V17.4221C66.75 20.4431 69.2244 22.9003 72.2686 22.9003H77.75V20.0298Z" fill="#00587C"/>
<path d="M110 8.47421V5.60114H97.25V22.9003H110V20.0272H100.179V15.3601H107.945V12.6916H100.179V8.47421H110Z" fill="#00587C"/>
<path d="M40.1238 5.60114H32.5V22.6496H35.3287V17.4762H40.1238C43.5013 17.4762 46.25 14.8106 46.25 11.5364C46.25 8.26225 43.5013 5.60114 40.1238 5.60114ZM40.1238 14.7129H35.3287V8.36443H40.1238C41.9415 8.36443 43.4213 9.7905 43.4213 11.5409C43.4213 13.2913 41.9415 14.7129 40.1238 14.7129Z" fill="#00587C"/>
<path d="M93.5 20.022L83.9138 20.0062L93.4695 8.1559V5.61686L80.25 5.60114V8.42553L89.762 8.43003L80.25 20.2714V22.889L93.4978 22.9003L93.5 20.022Z" fill="#00587C"/>
<path d="M60.3849 5.60114V15.93C60.3849 18.3108 58.4742 20.2473 56.125 20.2473C53.7758 20.2473 51.8651 18.3108 51.8651 15.93V5.60114H49V15.93C49 19.9175 52.1905 23.151 56.125 23.151C60.0595 23.151 63.25 19.9175 63.25 15.93V5.60114H60.3849Z" fill="#00587C"/>
<defs>
<linearGradient id="paint0_linear_37284_96986" x1="-3.14027" y1="-0.192447" x2="15.7507" y2="22.2334" gradientUnits="userSpaceOnUse">
<stop stop-color="#80502C"/>
<stop offset="0.12" stop-color="#945E3F"/>
<stop offset="0.3" stop-color="#AD7057"/>
<stop offset="0.47" stop-color="#BD7C66"/>
<stop offset="0.6" stop-color="#C3806C"/>
<stop offset="0.69" stop-color="#B37857"/>
<stop offset="0.76" stop-color="#A37041"/>
<stop offset="1" stop-color="#80512A"/>
</linearGradient>
</defs>
</svg>
