<svg 
  xmlns="http://www.w3.org/2000/svg" 
  xml:space="preserve" 
  style="enable-background:new 0 0 3798.43 2834.65" 
  viewBox="0 0 3798.43 2834.65"
  aria-label="Blu Logo"
  >
  <path d="M0 0h3798.43v2834.65H0z" style="fill:none"/>
  <path d="M2272.92 2251.65v-562.5a8.5 8.5 0 0 1 8.5-8.5h236.99a8.5 8.5 0 0 1 8.5 8.5v572.5c0 186.92 136.32 319 324 319 187.69 0 325-132.08 325-319v-572.5a8.5 8.5 0 0 1 8.5-8.5h236.99a8.5 8.5 0 0 1 8.5 8.5v562.5c0 340-241.33 583-579 583-337.64 0-577.98-243-577.98-583zm-246.71 563.49V1150.15a8.5 8.5 0 0 0-8.5-8.5h-236.99a8.5 8.5 0 0 0-8.5 8.5v1664.99a8.5 8.5 0 0 0 8.5 8.5h236.99c4.7 0 8.5-3.8 8.5-8.5zm-462.71-577.61c0 339.69-259.36 597.12-599.14 597.12-330.27 0-595.86-219.22-595.86-612v-1072.5a8.5 8.5 0 0 1 8.5-8.5h236a8.5 8.5 0 0 1 8.5 8.5v620.53c91.98-84.49 223.33-132.03 361.81-132.03 325.1 0 580.19 262 580.19 598.88zm-254 1.05c0-199.93-143.9-345.93-344.25-345.93-199.66 0-343.75 145-343.75 345.07 0 199.93 143.9 342.93 344.25 342.93 199.66 0 343.75-142 343.75-342.07zm2387.53 449.9c3.57-2.49 6.6-5.41 9.11-8.73 2.49-3.33 4.36-7.13 5.64-11.44 1.26-4.29 1.9-9.06 1.9-14.34v-.2c0-7.78-1.38-14.57-4.1-20.34-2.74-5.75-6.72-10.46-11.95-14.08-5.23-3.64-11.58-6.31-19.07-8.05-7.51-1.74-16.01-2.59-25.55-2.59h-68.22v146.86h30.58v-56.45h36.59l28.78 56.45h32.92l-30.95-60.36c.75-.23 1.5-.45 2.22-.7 4.52-1.51 8.55-3.52 12.1-6.03zm-81.65-55.88h36.85c5 0 9.32.39 12.99 1.2 3.65.79 6.7 2.05 9.14 3.74 2.42 1.7 4.26 3.93 5.49 6.7s1.84 5.93 1.84 9.54v.2c0 3.74-.61 6.95-1.84 9.63-1.23 2.72-3.06 4.9-5.49 6.55-2.44 1.67-5.49 2.9-9.14 3.75-3.67.82-8 1.25-12.99 1.25h-36.85v-42.56zm30.54-77.56c33.95 0 65.87 13.22 89.88 37.23 24.01 24.01 37.23 55.93 37.23 89.88 0 33.95-13.22 65.87-37.23 89.88-24.01 24.01-55.93 37.23-89.88 37.23s-65.87-13.22-89.88-37.23c-24.01-24.01-37.23-55.92-37.23-89.88 0-33.95 13.22-65.87 37.23-89.88 24.01-24.01 55.93-37.23 89.88-37.23m0-25.4c-84.22 0-152.5 68.28-152.5 152.5s68.28 152.5 152.5 152.5 152.5-68.28 152.5-152.5-68.27-152.5-152.5-152.5z" style="fill:#111954"/>
  <path d="m1963.04 866.46 436.42-755.91C2427.83 61.42 2392.37 0 2335.64 0h-872.85c-56.73 0-92.19 61.42-63.83 110.55l436.43 755.91c28.36 49.14 99.28 49.14 127.65 0z" style="fill:#00abff"/>
</svg>